<svg width="162" height="125" viewBox="0 0 162 125" fill="none" xmlns="http://www.w3.org/2000/svg">
<path d="M146.25 44.448L146.25 20.5078C146.25 9.19995 136.977 0 125.578 0L114.75 0C111.488 0 108.844 2.62329 108.844 5.85938C108.844 9.09546 111.488 11.7188 114.75 11.7188L125.578 11.7188C130.463 11.7188 134.437 15.6614 134.437 20.5078L134.437 46.875C134.437 48.429 135.06 49.9194 136.167 51.0183L147.741 62.5L136.167 73.9817C135.06 75.0806 134.437 76.571 134.437 78.125L134.437 104.492C134.437 109.339 130.463 113.281 125.578 113.281L114.75 113.281C111.488 113.281 108.844 115.905 108.844 119.141C108.844 122.377 111.488 125 114.75 125L125.578 125C136.977 125 146.25 115.8 146.25 104.492L146.25 80.552L160.27 66.6431C162.577 64.3547 162.577 60.645 160.27 58.3567L146.25 44.448Z" fill="#FF641A"/>
<path d="M15.7501 104.492C15.7501 115.8 25.0234 125 36.4219 125L47.25 125C50.512 125 53.1562 122.377 53.1562 119.141C53.1562 115.905 50.512 113.281 47.25 113.281L36.4219 113.281C31.5367 113.281 27.5626 109.339 27.5626 104.492L27.5626 78.125C27.5626 76.571 26.9402 75.0806 25.8328 73.9817L14.2591 62.5L25.8326 51.0183C26.9402 49.9194 27.5626 48.429 27.5626 46.875L27.5626 20.5078C27.5626 15.6614 31.5367 11.7188 36.4219 11.7188L47.25 11.7188C50.512 11.7188 53.1562 9.09546 53.1562 5.85938C53.1562 2.62329 50.512 0 47.25 0L36.4219 0C25.0234 0 15.7501 9.19995 15.7501 20.5078L15.7501 44.448L1.72997 58.3567C-0.576657 60.645 -0.576657 64.3547 1.72997 66.6431L15.7501 80.552L15.7501 104.492Z" fill="#FF641A"/>
<path d="M58.3658 83.0177C53.6898 83.0177 49.6228 82.1584 46.1649 80.4399C42.707 78.6814 40.0546 76.2035 38.2078 73.0062C36.3609 69.8089 35.4375 66.0921 35.4375 61.8557C35.4375 55.9808 36.5181 50.7652 38.6793 46.2091C40.8798 41.653 43.8465 38.136 47.5795 35.6581C51.3125 33.1402 55.458 31.8813 60.0162 31.8813C64.26 31.8813 67.4821 33.0004 69.6826 35.2385C71.8831 37.4366 72.9834 40.3541 72.9834 43.991C72.9834 46.4289 72.5511 48.3872 71.6866 49.866C70.8615 51.3447 69.663 52.0841 68.0912 52.0841C66.991 52.0841 66.1265 51.8243 65.4978 51.3047C64.8691 50.7852 64.5547 50.0258 64.5547 49.0267C64.5547 48.667 64.6333 48.0076 64.7905 47.0484C65.0262 45.8494 65.1441 44.8902 65.1441 44.1708C65.1441 40.5339 63.2383 38.7155 59.4268 38.7155C56.8333 38.7155 54.3578 39.5748 52.0001 41.2933C49.6424 43.0118 47.7367 45.5497 46.2828 48.9068C44.8289 52.224 44.1019 56.1806 44.1019 60.7767C44.1019 65.5726 45.4183 69.2894 48.051 71.9271C50.6838 74.5249 54.5739 75.8238 59.7215 75.8238C62.2756 75.8238 64.8494 75.5041 67.4428 74.8646C70.0756 74.1852 72.9834 73.1661 76.1662 71.8072C76.7556 71.5675 77.2468 71.4476 77.6398 71.4476C78.2685 71.4476 78.74 71.6873 79.0544 72.1669C79.3687 72.6465 79.5259 73.266 79.5259 74.0254C79.5259 76.4633 78.2292 78.2617 75.6357 79.4207C72.8458 80.6597 69.938 81.5789 66.9124 82.1784C63.926 82.7379 61.0771 83.0177 58.3658 83.0177Z" fill="#687782"/>
<path d="M121.642 32.9604C122.861 33.2002 123.764 33.6198 124.354 34.2193C124.983 34.8188 125.297 35.5182 125.297 36.3175C125.297 37.6364 124.924 38.5956 124.177 39.1951C123.47 39.7946 122.33 40.0344 120.758 39.9145C117.222 39.6347 114.452 39.4549 112.448 39.3749C110.483 39.255 107.889 39.1751 104.667 39.1351C103.213 46.4888 101.877 53.8825 100.659 61.3162C100.227 64.0339 99.7751 67.1912 99.3036 70.7881C98.8321 74.3451 98.5177 77.2226 98.3605 79.4207C98.2819 80.5798 97.8104 81.479 96.9459 82.1185C96.0814 82.7179 95.0401 83.0177 93.822 83.0177C92.5253 83.0177 91.5233 82.698 90.816 82.0585C90.1087 81.419 89.755 80.5798 89.755 79.5406C89.755 78.5815 89.8926 77.0028 90.1676 74.8047C90.482 72.5666 90.8356 70.2286 91.2286 67.7907C91.6608 65.3528 91.9948 63.2346 92.2306 61.4361C92.6628 58.3987 93.154 55.3813 93.7041 52.3838C94.2542 49.3864 94.8044 46.5488 95.3545 43.8711C95.4724 43.2716 95.6099 42.5922 95.7671 41.8328C95.9243 41.0335 96.1011 40.1543 96.2976 39.1951C92.4467 39.315 89.421 39.6347 87.2205 40.1543C85.0201 40.6738 83.4483 41.4132 82.5052 42.3724C81.6014 43.2916 81.1496 44.4906 81.1496 45.9693C81.1496 47.3281 81.5425 48.627 82.3284 49.866C82.4856 50.1457 82.5641 50.4455 82.5641 50.7652C82.5641 51.5246 82.1123 52.2439 81.2085 52.9234C80.344 53.5628 79.4402 53.8825 78.4972 53.8825C77.8292 53.8825 77.279 53.6827 76.8468 53.2831C76.0609 52.6036 75.4126 51.6445 74.9017 50.4055C74.3909 49.1266 74.1355 47.6878 74.1355 46.0892C74.1355 42.6921 75.2161 39.9744 77.3773 37.9361C79.5778 35.8579 82.8981 34.3392 87.3384 33.38C91.818 32.4209 97.555 31.9413 104.549 31.9413C108.872 31.9413 112.31 32.0212 114.864 32.1811C117.458 32.3409 119.717 32.6007 121.642 32.9604Z" fill="#687782"/>
</svg>
