<svg width="663" height="203" viewBox="0 0 663 203" fill="none" xmlns="http://www.w3.org/2000/svg">
<path d="M637.518 72.1835L637.518 33.3047C637.518 14.9407 622.515 0 604.074 0L586.556 0C581.278 0 577 4.26022 577 9.51562C577 14.771 581.278 19.0313 586.556 19.0313L604.074 19.0313C611.978 19.0313 618.407 25.4341 618.407 33.3047L618.407 76.125C618.407 78.6486 619.414 81.0692 621.206 82.8537L639.931 101.5L621.206 120.146C619.414 121.931 618.407 124.351 618.407 126.875L618.407 169.695C618.407 177.566 611.978 183.969 604.074 183.969L586.556 183.969C581.278 183.969 577 188.229 577 193.484C577 198.74 581.278 203 586.556 203L604.074 203C622.515 203 637.518 188.059 637.518 169.695L637.518 130.816L660.201 108.228C663.933 104.512 663.933 98.4875 660.201 94.7713L637.518 72.1835Z" fill="#FF641A"/>
<path d="M25.4817 169.695C25.4817 188.059 40.4847 203 58.926 203L76.4445 203C81.7219 203 86 198.74 86 193.484C86 188.229 81.7219 183.969 76.4445 183.969L58.926 183.969C51.0224 183.969 44.5927 177.566 44.5927 169.695L44.5927 126.875C44.5927 124.351 43.5858 121.931 41.7942 120.146L23.0693 101.5L41.7938 82.8537C43.5858 81.0692 44.5927 78.6486 44.5927 76.125L44.5927 33.3047C44.5927 25.4341 51.0224 19.0313 58.926 19.0313L76.4445 19.0313C81.7219 19.0313 86 14.771 86 9.51563C86 4.26022 81.7219 0 76.4445 0L58.926 0C40.4847 0 25.4817 14.9407 25.4817 33.3047L25.4817 72.1835L2.79887 94.7713C-0.932957 98.4875 -0.932957 104.512 2.79887 108.228L25.4817 130.816L25.4817 169.695Z" fill="#FF641A"/>
<path d="M98.488 134.48C90.872 134.48 84.248 133.104 78.616 130.352C72.984 127.536 68.664 123.568 65.656 118.448C62.648 113.328 61.144 107.376 61.144 100.592C61.144 91.184 62.904 82.832 66.424 75.536C70.008 68.24 74.84 62.608 80.92 58.64C87 54.608 93.752 52.592 101.176 52.592C108.088 52.592 113.336 54.384 116.92 57.968C120.504 61.488 122.296 66.16 122.296 71.984C122.296 75.888 121.592 79.024 120.184 81.392C118.84 83.76 116.888 84.944 114.328 84.944C112.536 84.944 111.128 84.528 110.104 83.696C109.08 82.864 108.568 81.648 108.568 80.048C108.568 79.472 108.696 78.416 108.952 76.88C109.336 74.96 109.528 73.424 109.528 72.272C109.528 66.448 106.424 63.536 100.216 63.536C95.992 63.536 91.96 64.912 88.12 67.664C84.28 70.416 81.176 74.48 78.808 79.856C76.44 85.168 75.256 91.504 75.256 98.864C75.256 106.544 77.4 112.496 81.688 116.72C85.976 120.88 92.312 122.96 100.696 122.96C104.856 122.96 109.048 122.448 113.272 121.424C117.56 120.336 122.296 118.704 127.48 116.528C128.44 116.144 129.24 115.952 129.88 115.952C130.904 115.952 131.672 116.336 132.184 117.104C132.696 117.872 132.952 118.864 132.952 120.08C132.952 123.984 130.84 126.864 126.616 128.72C122.072 130.704 117.336 132.176 112.408 133.136C107.544 134.032 102.904 134.48 98.488 134.48Z" fill="#687782"/>
<path d="M178.701 112.592C179.533 112.592 180.173 112.976 180.621 113.744C181.133 114.512 181.389 115.568 181.389 116.912C181.389 119.472 180.781 121.456 179.565 122.864C176.621 126.256 173.581 129.04 170.445 131.216C167.373 133.392 163.853 134.48 159.885 134.48C156.621 134.48 154.157 133.552 152.493 131.696C150.829 129.776 149.997 127.024 149.997 123.44C149.997 121.648 150.445 118.448 151.341 113.84C152.173 109.808 152.589 107.024 152.589 105.488C152.589 104.464 152.237 103.952 151.533 103.952C150.701 103.952 149.517 105.04 147.981 107.216C146.445 109.328 144.909 112.144 143.373 115.664C141.837 119.184 140.589 122.896 139.629 126.8C138.413 131.92 135.405 134.48 130.605 134.48C128.685 134.48 127.405 133.808 126.765 132.464C126.189 131.056 125.901 128.56 125.901 124.976C125.901 122.928 125.933 121.296 125.997 120.08L126.093 112.4C126.093 102.544 127.085 92.272 129.069 81.584C131.117 70.896 134.093 61.936 137.997 54.704C141.965 47.408 146.701 43.76 152.205 43.76C155.149 43.76 157.517 45.04 159.309 47.6C161.165 50.096 162.093 53.36 162.093 57.392C162.093 63.856 160.205 70.576 156.429 77.552C152.653 84.464 146.509 92.56 137.997 101.84C137.805 105.168 137.709 108.592 137.709 112.112C139.821 106.672 142.157 102.256 144.717 98.864C147.341 95.408 149.901 92.944 152.397 91.472C154.957 90 157.293 89.264 159.405 89.264C163.565 89.264 165.645 91.344 165.645 95.504C165.645 98 164.941 102.512 163.533 109.04C162.317 114.608 161.709 118.288 161.709 120.08C161.709 122.64 162.637 123.92 164.493 123.92C165.773 123.92 167.277 123.152 169.005 121.616C170.797 120.016 173.165 117.456 176.109 113.936C176.877 113.04 177.741 112.592 178.701 112.592ZM150.189 53.264C149.037 53.264 147.757 54.928 146.349 58.256C144.941 61.52 143.565 65.968 142.221 71.6C140.941 77.168 139.885 83.248 139.053 89.84C143.021 85.168 146.285 80.08 148.845 74.576C151.469 69.072 152.781 64.08 152.781 59.6C152.781 57.552 152.557 55.984 152.109 54.896C151.661 53.808 151.021 53.264 150.189 53.264Z" fill="#687782"/>
<path d="M180.424 134.48C177.992 134.48 176.264 133.2 175.24 130.64C174.28 128.08 173.8 123.984 173.8 118.352C173.8 110.032 174.984 102.128 177.352 94.64C177.928 92.784 178.856 91.44 180.136 90.608C181.48 89.712 183.336 89.264 185.704 89.264C186.984 89.264 187.88 89.424 188.392 89.744C188.904 90.064 189.16 90.672 189.16 91.568C189.16 92.592 188.68 94.896 187.72 98.48C187.08 101.04 186.568 103.28 186.184 105.2C185.8 107.12 185.48 109.488 185.224 112.304C187.336 106.8 189.704 102.32 192.328 98.864C194.952 95.408 197.512 92.944 200.008 91.472C202.568 90 204.904 89.264 207.016 89.264C211.176 89.264 213.256 91.344 213.256 95.504C213.256 96.336 212.968 98.352 212.392 101.552C211.88 104.112 211.624 105.712 211.624 106.352C211.624 108.592 212.424 109.712 214.024 109.712C215.816 109.712 218.12 108.304 220.936 105.488C221.768 104.656 222.632 104.24 223.528 104.24C224.36 104.24 225 104.624 225.448 105.392C225.96 106.096 226.216 107.056 226.216 108.272C226.216 110.64 225.576 112.496 224.296 113.84C222.504 115.696 220.392 117.296 217.96 118.64C215.592 119.92 213.064 120.56 210.376 120.56C206.984 120.56 204.392 119.696 202.6 117.968C200.872 116.24 200.008 113.904 200.008 110.96C200.008 110 200.104 109.04 200.296 108.08C200.424 106.8 200.488 105.936 200.488 105.488C200.488 104.464 200.136 103.952 199.432 103.952C198.472 103.952 197.192 105.04 195.592 107.216C194.056 109.328 192.52 112.144 190.984 115.664C189.448 119.184 188.2 122.896 187.24 126.8C186.536 129.808 185.704 131.856 184.744 132.944C183.848 133.968 182.408 134.48 180.424 134.48Z" fill="#687782"/>
<path d="M229.872 82.928C227.184 82.928 225.168 82.32 223.824 81.104C222.48 79.824 221.808 78.064 221.808 75.824C221.808 73.584 222.672 71.728 224.4 70.256C226.192 68.72 228.4 67.952 231.024 67.952C233.392 67.952 235.312 68.528 236.784 69.68C238.256 70.832 238.992 72.464 238.992 74.576C238.992 77.136 238.16 79.184 236.496 80.72C234.832 82.192 232.624 82.928 229.872 82.928ZM229.104 134.48C224.944 134.48 221.904 133.008 219.984 130.064C218.128 127.12 217.2 123.216 217.2 118.352C217.2 115.472 217.552 111.792 218.256 107.312C219.024 102.768 219.984 98.544 221.136 94.64C221.712 92.592 222.48 91.184 223.44 90.416C224.4 89.648 225.936 89.264 228.048 89.264C231.312 89.264 232.944 90.352 232.944 92.528C232.944 94.128 232.336 97.84 231.12 103.664C229.584 110.704 228.816 115.472 228.816 117.968C228.816 119.888 229.072 121.36 229.584 122.384C230.096 123.408 230.96 123.92 232.176 123.92C233.328 123.92 234.768 123.12 236.496 121.52C238.224 119.92 240.528 117.392 243.408 113.936C244.176 113.04 245.04 112.592 246 112.592C246.832 112.592 247.472 112.976 247.92 113.744C248.432 114.512 248.688 115.568 248.688 116.912C248.688 119.472 248.08 121.456 246.864 122.864C240.528 130.608 234.608 134.48 229.104 134.48Z" fill="#687782"/>
<path d="M258.777 136.592C255.449 136.592 252.889 135.824 251.097 134.288C249.369 132.752 248.505 131.024 248.505 129.104C248.505 127.44 249.113 126 250.329 124.784C251.545 123.568 253.337 122.96 255.705 122.96C256.537 122.96 257.497 123.056 258.585 123.248C259.737 123.376 260.601 123.472 261.177 123.536C261.113 121.872 260.729 120.304 260.025 118.832C259.385 117.36 258.553 115.952 257.529 114.608C256.505 113.2 255.545 111.984 254.649 110.96C252.665 114.736 250.681 117.872 248.697 120.368C246.777 122.864 244.665 125.232 242.361 127.472C241.209 128.624 239.993 129.2 238.713 129.2C237.689 129.2 236.857 128.848 236.217 128.144C235.577 127.376 235.257 126.448 235.257 125.36C235.257 124.08 235.705 122.896 236.601 121.808L237.849 120.272C241.369 115.92 244.025 112.336 245.817 109.52C246.905 107.664 248.185 105.2 249.657 102.128C251.129 98.992 252.569 95.76 253.977 92.432C255.193 89.616 257.721 88.208 261.561 88.208C263.353 88.208 264.601 88.368 265.305 88.688C266.009 89.008 266.361 89.52 266.361 90.224C266.361 90.608 266.233 91.216 265.977 92.048C265.721 92.88 265.369 93.712 264.921 94.544C263.769 96.848 263.193 98.8 263.193 100.4C263.193 101.36 263.513 102.416 264.153 103.568C264.857 104.72 265.913 106.16 267.321 107.888C269.369 110.576 270.905 112.88 271.929 114.8C273.017 116.656 273.561 118.704 273.561 120.944C273.561 121.584 273.497 122.48 273.369 123.632C276.505 122.416 280.185 119.184 284.409 113.936C285.177 113.04 286.041 112.592 287.001 112.592C287.833 112.592 288.473 112.976 288.921 113.744C289.433 114.512 289.689 115.568 289.689 116.912C289.689 119.344 289.081 121.328 287.865 122.864C284.665 126.832 281.593 129.552 278.649 131.024C275.769 132.432 272.185 133.2 267.897 133.328C265.337 135.504 262.297 136.592 258.777 136.592Z" fill="#687782"/>
<path d="M324.705 112.592C325.537 112.592 326.177 112.976 326.625 113.744C327.137 114.512 327.393 115.568 327.393 116.912C327.393 119.472 326.785 121.456 325.569 122.864C322.817 126.256 319.809 129.04 316.545 131.216C313.281 133.392 309.537 134.48 305.313 134.48C292.257 134.48 285.729 125.296 285.729 106.928C285.729 104.112 285.825 101.264 286.017 98.384H282.273C280.353 98.384 279.041 98.032 278.337 97.328C277.697 96.624 277.377 95.504 277.377 93.968C277.377 90.384 278.817 88.592 281.697 88.592H287.169C288.257 81.552 289.921 75.12 292.161 69.296C294.401 63.472 297.089 58.832 300.225 55.376C303.425 51.92 306.849 50.192 310.497 50.192C313.185 50.192 315.297 51.376 316.833 53.744C318.369 56.112 319.137 59.088 319.137 62.672C319.137 72.592 314.977 81.232 306.657 88.592H317.409C318.433 88.592 319.169 88.816 319.617 89.264C320.065 89.712 320.289 90.544 320.289 91.76C320.289 96.176 316.673 98.384 309.441 98.384H297.729C297.601 101.584 297.537 104.08 297.537 105.872C297.537 112.528 298.305 117.2 299.841 119.888C301.441 122.576 303.937 123.92 307.329 123.92C310.081 123.92 312.513 123.088 314.625 121.424C316.737 119.76 319.233 117.264 322.113 113.936C322.881 113.04 323.745 112.592 324.705 112.592ZM307.905 59.408C306.945 59.408 305.857 60.624 304.641 63.056C303.489 65.424 302.369 68.752 301.281 73.04C300.257 77.264 299.393 81.968 298.689 87.152C302.465 83.888 305.281 80.24 307.137 76.208C309.057 72.112 310.017 68.4 310.017 65.072C310.017 61.296 309.313 59.408 307.905 59.408Z" fill="#687782"/>
<path d="M332.153 82.928C329.465 82.928 327.449 82.32 326.105 81.104C324.761 79.824 324.089 78.064 324.089 75.824C324.089 73.584 324.953 71.728 326.681 70.256C328.473 68.72 330.681 67.952 333.305 67.952C335.673 67.952 337.593 68.528 339.065 69.68C340.537 70.832 341.273 72.464 341.273 74.576C341.273 77.136 340.441 79.184 338.777 80.72C337.113 82.192 334.905 82.928 332.153 82.928ZM331.385 134.48C327.225 134.48 324.185 133.008 322.265 130.064C320.409 127.12 319.481 123.216 319.481 118.352C319.481 115.472 319.833 111.792 320.537 107.312C321.305 102.768 322.265 98.544 323.417 94.64C323.993 92.592 324.761 91.184 325.721 90.416C326.681 89.648 328.217 89.264 330.329 89.264C333.593 89.264 335.225 90.352 335.225 92.528C335.225 94.128 334.617 97.84 333.401 103.664C331.865 110.704 331.097 115.472 331.097 117.968C331.097 119.888 331.353 121.36 331.865 122.384C332.377 123.408 333.241 123.92 334.457 123.92C335.609 123.92 337.049 123.12 338.777 121.52C340.505 119.92 342.809 117.392 345.689 113.936C346.457 113.04 347.321 112.592 348.281 112.592C349.113 112.592 349.753 112.976 350.201 113.744C350.713 114.512 350.969 115.568 350.969 116.912C350.969 119.472 350.361 121.456 349.145 122.864C342.809 130.608 336.889 134.48 331.385 134.48Z" fill="#687782"/>
<path d="M355.01 134.48C351.042 134.48 347.874 133.04 345.506 130.16C343.138 127.28 341.954 123.504 341.954 118.832C341.954 113.712 343.138 108.88 345.506 104.336C347.874 99.728 351.01 96.048 354.914 93.296C358.882 90.48 363.074 89.072 367.49 89.072C368.898 89.072 369.826 89.36 370.274 89.936C370.786 90.448 371.202 91.408 371.522 92.816C372.866 92.56 374.274 92.432 375.746 92.432C378.882 92.432 380.45 93.552 380.45 95.792C380.45 97.136 379.97 100.336 379.01 105.392C377.538 112.752 376.802 117.872 376.802 120.752C376.802 121.712 377.026 122.48 377.474 123.056C377.986 123.632 378.626 123.92 379.394 123.92C380.61 123.92 382.082 123.152 383.81 121.616C385.538 120.016 387.874 117.456 390.818 113.936C391.586 113.04 392.45 112.592 393.41 112.592C394.242 112.592 394.882 112.976 395.33 113.744C395.842 114.512 396.098 115.568 396.098 116.912C396.098 119.472 395.49 121.456 394.274 122.864C391.65 126.128 388.866 128.88 385.922 131.12C382.978 133.36 380.13 134.48 377.378 134.48C375.266 134.48 373.314 133.776 371.522 132.368C369.794 130.896 368.482 128.912 367.586 126.416C364.258 131.792 360.066 134.48 355.01 134.48ZM358.466 124.784C359.874 124.784 361.218 123.952 362.498 122.288C363.778 120.624 364.706 118.416 365.282 115.664L368.834 98C366.146 98.064 363.65 99.088 361.346 101.072C359.106 102.992 357.314 105.552 355.97 108.752C354.626 111.952 353.954 115.344 353.954 118.928C353.954 120.912 354.338 122.384 355.106 123.344C355.938 124.304 357.058 124.784 358.466 124.784Z" fill="#687782"/>
<path d="M395.112 134.48C392.68 134.48 390.952 133.2 389.928 130.64C388.968 128.08 388.488 123.984 388.488 118.352C388.488 110.032 389.672 102.128 392.04 94.64C392.616 92.784 393.544 91.44 394.824 90.608C396.168 89.712 398.024 89.264 400.392 89.264C401.672 89.264 402.568 89.424 403.08 89.744C403.592 90.064 403.848 90.672 403.848 91.568C403.848 92.592 403.368 94.896 402.408 98.48C401.768 101.04 401.256 103.28 400.872 105.2C400.488 107.12 400.168 109.488 399.912 112.304C402.024 106.8 404.392 102.32 407.016 98.864C409.64 95.408 412.2 92.944 414.696 91.472C417.256 90 419.592 89.264 421.704 89.264C425.864 89.264 427.944 91.344 427.944 95.504C427.944 98 427.24 102.512 425.832 109.04C424.616 114.608 424.008 118.288 424.008 120.08C424.008 122.64 424.936 123.92 426.792 123.92C428.072 123.92 429.576 123.152 431.304 121.616C433.096 120.016 435.464 117.456 438.408 113.936C439.176 113.04 440.04 112.592 441 112.592C441.832 112.592 442.472 112.976 442.92 113.744C443.432 114.512 443.688 115.568 443.688 116.912C443.688 119.472 443.08 121.456 441.864 122.864C439.112 126.256 436.136 129.04 432.936 131.216C429.8 133.392 426.216 134.48 422.184 134.48C418.92 134.48 416.456 133.552 414.792 131.696C413.128 129.776 412.296 127.024 412.296 123.44C412.296 121.648 412.744 118.448 413.64 113.84C414.472 109.808 414.888 107.024 414.888 105.488C414.888 104.464 414.536 103.952 413.832 103.952C413 103.952 411.816 105.04 410.28 107.216C408.808 109.328 407.272 112.144 405.672 115.664C404.136 119.184 402.888 122.896 401.928 126.8C401.224 129.808 400.392 131.856 399.432 132.944C398.536 133.968 397.096 134.48 395.112 134.48Z" fill="#687782"/>
<path d="M512.049 54.32C514.033 54.704 515.505 55.376 516.465 56.336C517.489 57.296 518.001 58.416 518.001 59.696C518.001 61.808 517.393 63.344 516.177 64.304C515.025 65.264 513.169 65.648 510.609 65.456C504.849 65.008 500.337 64.72 497.073 64.592C493.873 64.4 489.649 64.272 484.401 64.208C482.033 75.984 479.857 87.824 477.873 99.728C477.169 104.08 476.433 109.136 475.665 114.896C474.897 120.592 474.385 125.2 474.129 128.72C474.001 130.576 473.233 132.016 471.825 133.04C470.417 134 468.721 134.48 466.737 134.48C464.625 134.48 462.993 133.968 461.841 132.944C460.689 131.92 460.113 130.576 460.113 128.912C460.113 127.376 460.337 124.848 460.785 121.328C461.297 117.744 461.873 114 462.513 110.096C463.217 106.192 463.761 102.8 464.145 99.92C464.849 95.056 465.649 90.224 466.545 85.424C467.441 80.624 468.337 76.08 469.233 71.792C469.425 70.832 469.649 69.744 469.905 68.528C470.161 67.248 470.449 65.84 470.769 64.304C464.497 64.496 459.569 65.008 455.985 65.84C452.401 66.672 449.841 67.856 448.305 69.392C446.833 70.864 446.097 72.784 446.097 75.152C446.097 77.328 446.737 79.408 448.017 81.392C448.273 81.84 448.401 82.32 448.401 82.832C448.401 84.048 447.665 85.2 446.193 86.288C444.785 87.312 443.313 87.824 441.777 87.824C440.689 87.824 439.793 87.504 439.089 86.864C437.809 85.776 436.753 84.24 435.921 82.256C435.089 80.208 434.673 77.904 434.673 75.344C434.673 69.904 436.433 65.552 439.953 62.288C443.537 58.96 448.945 56.528 456.177 54.992C463.473 53.456 472.817 52.688 484.209 52.688C491.249 52.688 496.849 52.816 501.009 53.072C505.233 53.328 508.913 53.744 512.049 54.32Z" fill="#687782"/>
<path d="M543.193 104.528C544.025 104.528 544.665 104.944 545.113 105.776C545.561 106.608 545.785 107.664 545.785 108.944C545.785 112.016 544.857 113.84 543.001 114.416C539.161 115.76 534.937 116.528 530.329 116.72C529.113 122.096 526.713 126.416 523.129 129.68C519.545 132.88 515.481 134.48 510.937 134.48C507.097 134.48 503.801 133.552 501.049 131.696C498.361 129.84 496.313 127.376 494.905 124.304C493.497 121.232 492.793 117.904 492.793 114.32C492.793 109.456 493.721 105.136 495.577 101.36C497.433 97.52 499.993 94.544 503.257 92.432C506.521 90.256 510.137 89.168 514.105 89.168C518.969 89.168 522.873 90.864 525.817 94.256C528.825 97.584 530.585 101.712 531.097 106.64C534.105 106.448 537.689 105.808 541.849 104.72C542.361 104.592 542.809 104.528 543.193 104.528ZM511.705 124.304C513.753 124.304 515.513 123.472 516.985 121.808C518.521 120.144 519.545 117.744 520.057 114.608C518.073 113.264 516.537 111.504 515.449 109.328C514.425 107.152 513.913 104.848 513.913 102.416C513.913 101.392 514.009 100.368 514.201 99.344H513.721C511.161 99.344 509.017 100.592 507.289 103.088C505.625 105.52 504.793 108.976 504.793 113.456C504.793 116.976 505.465 119.664 506.809 121.52C508.217 123.376 509.849 124.304 511.705 124.304Z" fill="#687782"/>
<path d="M573.93 112.592C574.762 112.592 575.402 112.976 575.85 113.744C576.362 114.512 576.618 115.568 576.618 116.912C576.618 119.472 576.01 121.456 574.794 122.864C572.042 126.256 569.034 129.04 565.77 131.216C562.57 133.392 558.922 134.48 554.826 134.48C549.194 134.48 545.002 131.92 542.25 126.8C539.562 121.68 538.218 115.056 538.218 106.928C538.218 99.12 539.21 90.224 541.194 80.24C543.242 70.256 546.218 61.68 550.122 54.512C554.09 47.344 558.794 43.76 564.234 43.76C567.306 43.76 569.706 45.2 571.434 48.08C573.226 50.896 574.122 54.96 574.122 60.272C574.122 67.888 572.01 76.72 567.786 86.768C563.562 96.816 557.834 106.768 550.602 116.624C551.05 119.248 551.786 121.136 552.81 122.288C553.834 123.376 555.178 123.92 556.842 123.92C559.466 123.92 561.77 123.184 563.754 121.712C565.738 120.176 568.266 117.584 571.338 113.936C572.106 113.04 572.97 112.592 573.93 112.592ZM562.122 53.264C560.65 53.264 558.986 55.92 557.13 61.232C555.274 66.544 553.642 73.136 552.234 81.008C550.826 88.88 550.058 96.432 549.93 103.664C554.474 96.176 558.09 88.688 560.778 81.2C563.466 73.648 564.81 66.768 564.81 60.56C564.81 55.696 563.914 53.264 562.122 53.264Z" fill="#687782"/>
<path d="M578.961 134.48C575.313 134.48 572.336 133.04 570.033 130.16C567.793 127.28 566.673 123.504 566.673 118.832C566.673 113.712 567.857 108.88 570.225 104.336C572.593 99.728 575.729 96.048 579.633 93.296C583.601 90.48 587.793 89.072 592.209 89.072C593.617 89.072 594.545 89.36 594.993 89.936C595.505 90.448 595.921 91.408 596.241 92.816C597.457 92.56 598.801 92.432 600.273 92.432C601.809 92.432 602.993 92.816 603.825 93.584C604.657 94.352 605.073 95.44 605.073 96.848C605.073 98.32 604.753 100.88 604.113 104.528C603.409 108.432 602.865 112.176 602.481 115.76C602.097 119.28 601.905 123.248 601.905 127.664C601.905 130.096 601.393 131.856 600.369 132.944C599.409 133.968 597.809 134.48 595.569 134.48C593.393 134.48 591.761 133.968 590.673 132.944C589.649 131.856 589.137 130.128 589.137 127.76L589.233 126.224C587.249 131.728 583.825 134.48 578.961 134.48ZM582.705 124.784C584.497 124.784 586.129 123.536 587.601 121.04C589.073 118.544 590.385 114.096 591.537 107.696L593.361 98C590.737 98.064 588.305 99.088 586.065 101.072C583.825 102.992 582.033 105.552 580.689 108.752C579.345 111.952 578.673 115.344 578.673 118.928C578.673 120.848 579.025 122.32 579.729 123.344C580.497 124.304 581.489 124.784 582.705 124.784Z" fill="#687782"/>
</svg>
